<svg width="40" height="40" viewBox="0 0 40 40" fill="currentColor" xmlns="http://www.w3.org/2000/svg">
<g clip-path="url(#clip0_7933_1499)">
<path d="M38.75 27.5H37.5V18.75C37.5 18.0625 36.9375 17.5 36.25 17.5H35V11.25C35 10.5625 34.4375 10 33.75 10H32.5V1.25C32.5 0.5625 31.9375 0 31.25 0C30.5625 0 30 0.5625 30 1.25V2.5H25V1.25C25 0.5625 24.4375 0 23.75 0C23.0625 0 22.5 0.5625 22.5 1.25V2.5H17.5V1.25C17.5 0.5625 16.9375 0 16.25 0C15.5625 0 15 0.5625 15 1.25V2.5H10V1.25C10 0.5625 9.4375 0 8.75 0C8.0625 0 7.5 0.5625 7.5 1.25V10H6.25C5.5625 10 5 10.5625 5 11.25V17.5H3.75C3.0625 17.5 2.5 18.0625 2.5 18.75V27.5H1.25C0.5625 27.5 0 28.0625 0 28.75V38.75C0 39.4375 0.5625 40 1.25 40H7.5V27.5H10V17.5H12.5V10H15V17.5H12.5V27.5H10V40H16.25V33.75C16.25 33.0625 16.8125 32.5 17.5 32.5H22.5C23.1875 32.5 23.75 33.0625 23.75 33.75V40H30V27.5H27.5V17.5H25V10H27.5V17.5H30V27.5H32.5V40H38.75C39.4375 40 40 39.4375 40 38.75V28.75C40 28.0625 39.4375 27.5 38.75 27.5ZM18.125 13.75C18.125 13.0625 18.6875 12.5 19.375 12.5H20.625C21.3125 12.5 21.875 13.0625 21.875 13.75V17.5H18.125V13.75ZM22.5 27.5H17.5V22.5C17.5 21.8125 18.0625 21.25 18.75 21.25H21.25C21.9375 21.25 22.5 21.8125 22.5 22.5V27.5Z" fill="currentColor"/>
</g>
<defs>
<clipPath id="clip0_7933_1499">
<rect width="40" height="40" fill="white"/>
</clipPath>
</defs>
</svg>
