<svg width="41" height="24" viewBox="0 0 41 24" fill="none" xmlns="http://www.w3.org/2000/svg">
<path d="M40.4062 0C39.8125 2.53125 39.2031 5.1875 38.5781 7.96875C37.9844 10.75 37.4375 13.4844 36.9375 16.1719C36.4375 18.8281 36.0156 21.2656 35.6719 23.4844H22.5469L21.8906 22.4531C22.4531 20.1719 23.1719 17.75 24.0469 15.1875C24.9531 12.5938 25.9219 10 26.9531 7.40625C28.0156 4.78125 29.0781 2.3125 30.1406 0H40.4062ZM18.5156 0C17.9219 2.53125 17.3125 5.1875 16.6875 7.96875C16.0938 10.75 15.5469 13.4844 15.0469 16.1719C14.5469 18.8281 14.125 21.2656 13.7812 23.4844H0.65625L0 22.4531C0.5625 20.1719 1.28125 17.75 2.15625 15.1875C3.0625 12.5938 4.03125 10 5.0625 7.40625C6.125 4.78125 7.1875 2.3125 8.25 0H18.5156Z" fill="#B0855B"/>
</svg>
