<svg width="40" height="40" viewBox="0 0 40 40" fill="curentColorsa" xmlns="http://www.w3.org/2000/svg">
<path d="M10.057 15.2594L3.5875 11.2156C2.95937 10.8234 2.10391 11.0461 1.79609 11.7195C0.791894 13.9182 0.197515 16.2816 0.0421875 18.6938C-0.00390625 19.4039 0.592969 20 1.30391 20H8.89219C9.51406 20 9.99219 19.5117 10.0648 18.8937C10.15 18.1648 10.318 17.4617 10.5523 16.7891C10.7523 16.2156 10.5719 15.5813 10.057 15.2594ZM24.9242 0.625C23.3484 0.220313 21.7008 0 20 0C18.2992 0 16.6516 0.220313 15.0758 0.625C14.3594 0.808594 13.9891 1.60938 14.2641 2.29609L17.1914 10.4234C17.2786 10.6654 17.4382 10.8746 17.6487 11.0226C17.8591 11.1705 18.11 11.2499 18.3672 11.25H21.6328C22.1602 11.25 22.6305 10.9195 22.8086 10.4234L25.7359 2.29609C26.0109 1.60938 25.6406 0.809375 24.9242 0.625ZM8.75 22.5H1.25C0.559375 22.5 0 23.0594 0 23.75V28.75C0 29.4406 0.559375 30 1.25 30H8.75C9.44063 30 10 29.4406 10 28.75V23.75C10 23.0594 9.44063 22.5 8.75 22.5ZM8.75 32.5H1.25C0.559375 32.5 0 33.0594 0 33.75V38.75C0 39.4406 0.559375 40 1.25 40H8.75C9.44063 40 10 39.4406 10 38.75V33.75C10 33.0594 9.44063 32.5 8.75 32.5ZM14.7898 10.3383L11.9523 3.24453C11.6766 2.55469 10.8484 2.22969 10.2008 2.59531C8.06625 3.80078 6.1702 5.38651 4.60625 7.27422C4.13281 7.84609 4.30547 8.71797 4.93594 9.11172L11.4148 13.1609C11.9234 13.4789 12.5602 13.3656 12.9859 12.943C13.3906 12.5406 13.8289 12.1734 14.2977 11.8453C14.7883 11.5008 15.0125 10.8945 14.7898 10.3383ZM31.1078 20H38.6961C39.407 20 40.0039 19.4039 39.9578 18.6938C39.8026 16.2816 39.2082 13.9181 38.2039 11.7195C37.8961 11.0461 37.0406 10.8234 36.4125 11.2156L29.943 15.2594C29.4281 15.5813 29.2477 16.2156 29.4477 16.7891C29.6828 17.4617 29.85 18.1656 29.9352 18.8937C30.0078 19.5117 30.4859 20 31.1078 20ZM35.393 7.27422C33.829 5.38651 31.933 3.80078 29.7984 2.59531C29.1516 2.22969 28.3234 2.55469 28.0469 3.24453L25.2094 10.3383C24.9867 10.8945 25.2109 11.5008 25.7016 11.8445C26.1703 12.1727 26.6086 12.5398 27.0133 12.9422C27.4383 13.3648 28.0758 13.4781 28.5844 13.1602L35.0633 9.11094C35.6937 8.71797 35.8672 7.84609 35.393 7.27422ZM38.75 22.5H31.25C30.5594 22.5 30 23.0594 30 23.75V28.75C30 29.4406 30.5594 30 31.25 30H38.75C39.4406 30 40 29.4406 40 28.75V23.75C40 23.0594 39.4406 22.5 38.75 22.5ZM38.75 32.5H31.25C30.5594 32.5 30 33.0594 30 33.75V38.75C30 39.4406 30.5594 40 31.25 40H38.75C39.4406 40 40 39.4406 40 38.75V33.75C40 33.0594 39.4406 32.5 38.75 32.5ZM18.75 13.8766V36.875C18.75 37.2203 19.0297 37.5 19.375 37.5H20.625C20.9703 37.5 21.25 37.2203 21.25 36.875V13.8766C20.8414 13.807 20.4281 13.75 20 13.75C19.5719 13.75 19.1586 13.807 18.75 13.8766ZM13.75 17.1195V36.875C13.75 37.2203 14.0297 37.5 14.375 37.5H15.625C15.9703 37.5 16.25 37.2203 16.25 36.875V14.7937C15.2516 15.3758 14.3875 16.1586 13.75 17.1195ZM23.75 14.7937V36.875C23.75 37.2203 24.0297 37.5 24.375 37.5H25.625C25.9703 37.5 26.25 37.2203 26.25 36.875V17.1195C25.6125 16.1586 24.7484 15.3758 23.75 14.7937Z" fill="currentColor"/>
</svg>
